<svg id="Ebene_1" data-name="Ebene 1" xmlns="http://www.w3.org/2000/svg" viewBox="0 0 756 768"><defs><style>.cls-1,.cls-2{fill:none;stroke:#00d4ff;stroke-miterlimit:10;}.cls-1{stroke-width:7px;}.cls-2{stroke-dasharray:6 6;}</style></defs><title>kreis_frage_Zeichenfläche 1</title><path class="cls-1" d="M594.31,600.78H549.13"/><path class="cls-1" d="M161.25,213.08V167.22h45.49"/><path class="cls-1" d="M549.73,167.1h44.48a3,3,0,0,1,.52.47,1.09,1.09,0,0,1,.25.61c0,14.79,0,29.59,0,44.64"/><path class="cls-1" d="M206.76,600.89H161.23V555.53"/><path class="cls-1" d="M538.7,600.89H494.65"/><path class="cls-1" d="M217.29,167.22h44.06"/><path class="cls-1" d="M494.64,167.22h44.07"/><path class="cls-1" d="M161.13,267.42v-44"/><path class="cls-1" d="M595,224.23c0,14.31,0,28.63,0,43.2"/><path class="cls-1" d="M261.6,600.78H217.17"/><path class="cls-1" d="M595,501.52c0,14.32,0,28.64,0,43.21"/><path class="cls-1" d="M595,559.12c0,14.32,0,28.64,0,43.21"/><path class="cls-1" d="M161,543.89c0-14.32,0-28.64,0-43.2"/><path class="cls-1" d="M150.7,488.83H106.64V444.9c-.09.08,0-.12.24-.25a1.22,1.22,0,0,1,.62-.24"/><path class="cls-1" d="M106.64,434.35V389.92"/><path class="cls-1" d="M605.3,489h43.22V444.5"/><path class="cls-1" d="M649.35,333.77v44.42"/><path class="cls-1" d="M605.3,279.29h44.06v43.93c.08-.08-.06.12-.25.25a1.21,1.21,0,0,1-.62.23"/><path class="cls-1" d="M438.59,112.62h44.07v44"/><path class="cls-1" d="M384,112.62h44.08"/><path class="cls-1" d="M328.78,112.51H372"/><path class="cls-1" d="M273.34,157V112.62h44.05"/><path class="cls-1" d="M317.64,655.38H273.21V611.31"/><path class="cls-1" d="M372,655.5H327.94"/><path class="cls-1" d="M428.17,655.38H384.23c.07.07-.14-.08-.26-.28a1.19,1.19,0,0,1-.22-.62"/><path class="cls-1" d="M482.67,611.07v44.42H438.59"/><line class="cls-2" x1="378.5" y1="6" x2="378.5" y2="113"/><line class="cls-2" x1="378.5" y1="655" x2="378.5" y2="762"/><line class="cls-2" x1="756.5" y1="384" x2="649.5" y2="384"/><line class="cls-2" x1="107.5" y1="384" x2="0.5" y2="384"/><polyline class="cls-1" points="150.5 279.5 107.5 279.5 107.5 323.5"/><line class="cls-1" x1="107.5" y1="333.5" x2="107.5" y2="378.5"/><path class="cls-1" d="M649.35,392.77v44.42"/></svg>